<svg width="370" height="83" viewBox="0 0 370 83" fill="none" xmlns="http://www.w3.org/2000/svg">
<path d="M10.4486 36.9547C10.8059 37.8802 12.3577 36.3675 13.2296 35.8942C19.2134 32.6458 25.4191 29.9602 31.8022 27.5817C50.4427 20.6358 70.3114 14.2814 90.0635 11.4438C101.741 9.76614 115.87 10.3305 127.203 13.78C134.668 16.0523 116.56 47.0742 114.184 51.3406C111.518 56.1284 108.75 60.7489 106.323 65.6668C105.261 67.8181 101.583 73.4538 103.729 72.3798C140.952 53.7415 181.054 42.3287 221.94 34.3444C262.745 26.376 308.462 19.5647 350.122 25.4672C354.082 26.0283 357.142 27.0516 359.449 30.0722" stroke="#9FEB8C" stroke-width="20" stroke-linecap="round"/>
</svg>
