<svg width="297" height="70" viewBox="0 0 297 70" fill="none" xmlns="http://www.w3.org/2000/svg">
<path d="M10.3443 31.7878C10.6267 32.5194 11.8533 31.3237 12.5425 30.9495C17.2722 28.3819 22.1773 26.2592 27.2226 24.3792C41.9565 18.889 57.6611 13.8663 73.2736 11.6234C82.5039 10.2974 93.6715 10.7435 102.629 13.47C108.53 15.2661 94.2168 39.7864 92.3391 43.1588C90.232 46.9431 88.0437 50.5953 86.1255 54.4825C85.2864 56.1829 82.3792 60.6375 84.0748 59.7885C113.497 45.0565 145.195 36.0356 177.512 29.7246C209.765 23.4262 245.901 18.0424 278.83 22.7078C281.96 23.1513 284.379 23.9601 286.202 26.3477" stroke="#9FEB8C" stroke-width="20" stroke-linecap="round"/>
</svg>
