<svg width="246" height="75" viewBox="0 0 246 75" fill="none" xmlns="http://www.w3.org/2000/svg">
<path d="M90.912 48.24L91.08 46.632C91.752 46.536 92.208 46.344 92.448 46.056C92.688 45.768 92.808 45.272 92.808 44.568L92.832 35.424C92.832 34.896 92.784 34.552 92.688 34.392C92.592 34.216 92.384 34.128 92.064 34.128C91.968 34.128 91.848 34.136 91.704 34.152C91.56 34.152 91.432 34.16 91.32 34.176L91.176 33.96L91.368 32.52C91.736 32.52 92.176 32.528 92.688 32.544C93.2 32.56 93.72 32.576 94.248 32.592C94.792 32.592 95.28 32.592 95.712 32.592C96.864 32.592 97.896 32.584 98.808 32.568C99.72 32.552 100.52 32.52 101.208 32.472C101.912 32.424 102.512 32.368 103.008 32.304L103.2 32.568C103.12 32.968 103.04 33.424 102.96 33.936C102.88 34.448 102.816 34.968 102.768 35.496C102.72 36.008 102.68 36.48 102.648 36.912L100.512 37.056C100.528 36.928 100.536 36.768 100.536 36.576C100.552 36.368 100.56 36.208 100.56 36.096C100.56 35.76 100.528 35.496 100.464 35.304C100.4 35.096 100.264 34.944 100.056 34.848C99.848 34.736 99.536 34.664 99.12 34.632C98.72 34.584 98.176 34.56 97.488 34.56C97.104 34.56 96.816 34.576 96.624 34.608C96.448 34.64 96.336 34.712 96.288 34.824C96.24 34.936 96.208 35.12 96.192 35.376L95.952 40.584L95.88 44.712C95.88 45.144 95.912 45.464 95.976 45.672C96.056 45.864 96.2 45.992 96.408 46.056C96.632 46.12 96.976 46.152 97.44 46.152C98.192 46.152 98.8 46.12 99.264 46.056C99.728 45.992 100.088 45.872 100.344 45.696C100.6 45.504 100.792 45.224 100.92 44.856C101.048 44.488 101.152 44.008 101.232 43.416L103.2 43.248L103.368 43.464C103.256 44.056 103.136 44.768 103.008 45.6C102.896 46.432 102.8 47.2 102.72 47.904L102.48 48.168C101.616 48.136 100.712 48.104 99.768 48.072C98.84 48.056 97.96 48.04 97.128 48.024C96.296 48.008 95.592 48 95.016 48C94.44 48 93.768 48.016 93 48.048C92.232 48.096 91.536 48.16 90.912 48.24ZM95.64 41.328L95.832 39.144C95.944 39.144 96.144 39.144 96.432 39.144C96.72 39.144 97.032 39.152 97.368 39.168C97.704 39.168 98.008 39.168 98.28 39.168C98.536 39.168 98.944 39.144 99.504 39.096C100.064 39.048 100.584 39 101.064 38.952L101.256 39.168L100.92 41.208C100.504 41.192 99.984 41.176 99.36 41.16C98.736 41.144 98.208 41.136 97.776 41.136C97.424 41.136 97.048 41.16 96.648 41.208C96.248 41.24 95.912 41.28 95.64 41.328ZM112.361 48.192L112.241 48L112.361 46.584C112.889 46.536 113.281 46.488 113.537 46.44C113.793 46.376 113.969 46.288 114.065 46.176C114.161 46.064 114.209 45.912 114.209 45.72C114.209 45.608 114.201 45.488 114.185 45.36C114.169 45.216 114.137 45.056 114.089 44.88L113.585 43.032C113.281 43.016 112.905 43.008 112.457 43.008C112.025 42.992 111.665 42.984 111.377 42.984C110.993 42.984 110.585 43.008 110.153 43.056C109.721 43.088 109.361 43.12 109.073 43.152L108.473 45C108.377 45.352 108.329 45.6 108.329 45.744C108.329 46.032 108.409 46.232 108.569 46.344C108.745 46.456 109.041 46.512 109.457 46.512H110.489L110.609 46.68L110.441 48.144C110.441 48.144 110.249 48.128 109.865 48.096C109.497 48.08 109.041 48.056 108.497 48.024C107.969 48.008 107.449 48 106.937 48C106.505 48 106.065 48 105.617 48C105.169 48.016 104.793 48.032 104.489 48.048C104.201 48.064 104.057 48.072 104.057 48.072L104.225 46.512C104.609 46.448 104.921 46.296 105.161 46.056C105.401 45.816 105.617 45.424 105.809 44.88L110.105 32.712L113.777 32.328L114.041 32.448C114.041 32.448 114.089 32.656 114.185 33.072C114.297 33.488 114.449 34.048 114.641 34.752C114.833 35.44 115.049 36.224 115.289 37.104C115.529 37.984 115.769 38.888 116.009 39.816C116.265 40.744 116.521 41.648 116.777 42.528C117.033 43.392 117.273 44.168 117.497 44.856C117.657 45.432 117.873 45.84 118.145 46.08C118.433 46.32 118.849 46.464 119.393 46.512L119.489 46.68L119.321 48.072C119.321 48.072 119.145 48.064 118.793 48.048C118.457 48.032 118.057 48.016 117.593 48C117.145 48 116.745 48 116.393 48C115.721 48 115.073 48.016 114.449 48.048C113.825 48.08 113.321 48.112 112.937 48.144C112.553 48.176 112.361 48.192 112.361 48.192ZM109.649 41.136H111.377C111.633 41.136 111.929 41.128 112.265 41.112C112.617 41.096 112.913 41.08 113.153 41.064L111.737 35.712H111.425L109.649 41.136ZM124.577 48.288C123.745 48.288 123.009 48.208 122.369 48.048C121.745 47.904 121.257 47.76 120.905 47.616C120.553 47.456 120.377 47.376 120.377 47.376L120.185 47.04C120.185 47.04 120.201 46.928 120.233 46.704C120.281 46.464 120.321 46.152 120.353 45.768C120.401 45.368 120.449 44.928 120.497 44.448C120.545 43.952 120.569 43.456 120.569 42.96L122.537 42.816C122.537 43.696 122.617 44.384 122.777 44.88C122.937 45.376 123.209 45.72 123.593 45.912C123.993 46.104 124.529 46.2 125.201 46.2C125.969 46.2 126.585 46.032 127.049 45.696C127.513 45.36 127.745 44.896 127.745 44.304C127.745 43.856 127.569 43.472 127.217 43.152C126.881 42.832 126.441 42.536 125.897 42.264C125.369 41.976 124.801 41.688 124.193 41.4C123.569 41.096 122.961 40.752 122.369 40.368C121.793 39.984 121.313 39.528 120.929 39C120.561 38.472 120.377 37.832 120.377 37.08C120.377 36.152 120.649 35.328 121.193 34.608C121.753 33.888 122.505 33.328 123.449 32.928C124.409 32.512 125.513 32.304 126.761 32.304C127.545 32.304 128.241 32.36 128.849 32.472C129.473 32.568 129.961 32.672 130.313 32.784C130.665 32.896 130.841 32.952 130.841 32.952L131.009 33.264C131.009 33.264 130.969 33.456 130.889 33.84C130.809 34.208 130.721 34.712 130.625 35.352C130.545 35.976 130.481 36.648 130.433 37.368L128.657 37.512L128.441 37.368C128.441 37.368 128.449 37.28 128.465 37.104C128.481 36.928 128.489 36.728 128.489 36.504C128.489 35.784 128.305 35.272 127.937 34.968C127.585 34.664 126.985 34.512 126.137 34.512C125.449 34.512 124.881 34.68 124.433 35.016C124.001 35.352 123.785 35.768 123.785 36.264C123.785 36.68 123.929 37.048 124.217 37.368C124.521 37.672 124.913 37.952 125.393 38.208C125.873 38.464 126.385 38.728 126.929 39C127.617 39.32 128.289 39.672 128.945 40.056C129.601 40.44 130.145 40.904 130.577 41.448C131.009 41.976 131.225 42.648 131.225 43.464C131.225 44.424 130.945 45.272 130.385 46.008C129.841 46.728 129.073 47.288 128.081 47.688C127.089 48.088 125.921 48.288 124.577 48.288ZM135.381 48.264L135.549 46.656C136.173 46.576 136.637 46.464 136.941 46.32C137.245 46.16 137.445 45.928 137.541 45.624C137.653 45.32 137.709 44.904 137.709 44.376V43.632C137.709 43.216 137.661 42.832 137.565 42.48C137.469 42.128 137.285 41.688 137.013 41.16L134.661 36.6C134.421 36.104 134.189 35.696 133.965 35.376C133.741 35.04 133.469 34.776 133.149 34.584C132.845 34.392 132.437 34.256 131.925 34.176L131.877 34.056L132.045 32.544C132.045 32.544 132.157 32.552 132.381 32.568C132.621 32.568 132.901 32.576 133.221 32.592C133.557 32.592 133.901 32.6 134.253 32.616C134.605 32.616 134.893 32.616 135.117 32.616C135.437 32.616 135.813 32.608 136.245 32.592C136.677 32.576 137.093 32.552 137.493 32.52C137.909 32.488 138.253 32.464 138.525 32.448C138.813 32.432 138.957 32.424 138.957 32.424L139.053 32.64L138.933 33.984C138.373 34.032 137.989 34.112 137.781 34.224C137.573 34.32 137.469 34.488 137.469 34.728C137.469 34.856 137.533 35.088 137.661 35.424C137.789 35.744 137.949 36.128 138.141 36.576C138.333 37.024 138.525 37.472 138.717 37.92C138.925 38.352 139.101 38.736 139.245 39.072C139.405 39.408 139.509 39.632 139.557 39.744H139.773L141.717 35.712C141.957 35.248 142.077 34.872 142.077 34.584C142.077 34.408 141.973 34.272 141.765 34.176C141.573 34.08 141.261 34.024 140.829 34.008L140.781 33.888L140.949 32.52C141.141 32.52 141.413 32.528 141.765 32.544C142.133 32.56 142.525 32.576 142.941 32.592C143.373 32.608 143.765 32.616 144.117 32.616C144.485 32.616 144.853 32.608 145.221 32.592C145.589 32.576 145.901 32.56 146.157 32.544C146.413 32.528 146.541 32.52 146.541 32.52L146.637 32.688L146.469 34.128C146.021 34.272 145.637 34.472 145.317 34.728C145.013 34.968 144.725 35.288 144.453 35.688C144.197 36.072 143.893 36.576 143.541 37.2L141.261 41.496C141.117 41.768 141.013 42.048 140.949 42.336C140.885 42.624 140.845 42.968 140.829 43.368C140.813 43.752 140.805 44.248 140.805 44.856C140.789 45.448 140.861 45.864 141.021 46.104C141.181 46.328 141.477 46.44 141.909 46.44C142.181 46.44 142.445 46.432 142.701 46.416C142.973 46.384 143.109 46.368 143.109 46.368L143.205 46.488L142.989 48.096C142.989 48.096 142.845 48.088 142.557 48.072C142.269 48.072 141.909 48.064 141.477 48.048C141.061 48.032 140.629 48.016 140.181 48C139.749 48 139.381 48 139.077 48C138.725 48 138.341 48.016 137.925 48.048C137.509 48.08 137.109 48.104 136.725 48.12C136.341 48.152 136.021 48.184 135.765 48.216C135.509 48.248 135.381 48.264 135.381 48.264ZM147.279 48.24L147.447 46.632C148.119 46.536 148.575 46.344 148.815 46.056C149.055 45.768 149.175 45.272 149.175 44.568L149.199 35.424C149.199 34.896 149.151 34.552 149.055 34.392C148.959 34.216 148.751 34.128 148.431 34.128C148.335 34.128 148.215 34.136 148.071 34.152C147.927 34.152 147.799 34.16 147.687 34.176L147.543 33.96L147.735 32.52C148.103 32.52 148.543 32.528 149.055 32.544C149.567 32.56 150.087 32.576 150.615 32.592C151.159 32.592 151.647 32.592 152.079 32.592C153.231 32.592 154.263 32.584 155.175 32.568C156.087 32.552 156.887 32.52 157.575 32.472C158.279 32.424 158.879 32.368 159.375 32.304L159.567 32.568C159.487 32.968 159.407 33.424 159.327 33.936C159.247 34.448 159.183 34.968 159.135 35.496C159.087 36.008 159.047 36.48 159.015 36.912L156.879 37.056C156.895 36.928 156.903 36.768 156.903 36.576C156.919 36.368 156.927 36.208 156.927 36.096C156.927 35.76 156.895 35.496 156.831 35.304C156.767 35.096 156.631 34.944 156.423 34.848C156.215 34.736 155.903 34.664 155.487 34.632C155.087 34.584 154.543 34.56 153.855 34.56C153.471 34.56 153.183 34.576 152.991 34.608C152.815 34.64 152.703 34.712 152.655 34.824C152.607 34.936 152.575 35.12 152.559 35.376L152.319 40.584L152.247 44.712C152.247 45.144 152.279 45.464 152.343 45.672C152.423 45.864 152.567 45.992 152.775 46.056C152.999 46.12 153.343 46.152 153.807 46.152C154.559 46.152 155.167 46.12 155.631 46.056C156.095 45.992 156.455 45.872 156.711 45.696C156.967 45.504 157.159 45.224 157.287 44.856C157.415 44.488 157.519 44.008 157.599 43.416L159.567 43.248L159.735 43.464C159.623 44.056 159.503 44.768 159.375 45.6C159.263 46.432 159.167 47.2 159.087 47.904L158.847 48.168C157.983 48.136 157.079 48.104 156.135 48.072C155.207 48.056 154.327 48.04 153.495 48.024C152.663 48.008 151.959 48 151.383 48C150.807 48 150.135 48.016 149.367 48.048C148.599 48.096 147.903 48.16 147.279 48.24ZM152.007 41.328L152.199 39.144C152.311 39.144 152.511 39.144 152.799 39.144C153.087 39.144 153.399 39.152 153.735 39.168C154.071 39.168 154.375 39.168 154.647 39.168C154.903 39.168 155.311 39.144 155.871 39.096C156.431 39.048 156.951 39 157.431 38.952L157.623 39.168L157.287 41.208C156.871 41.192 156.351 41.176 155.727 41.16C155.103 41.144 154.575 41.136 154.143 41.136C153.791 41.136 153.415 41.16 153.015 41.208C152.615 41.24 152.279 41.28 152.007 41.328ZM173.312 48.648C172.368 47.144 171.464 45.744 170.6 44.448C169.752 43.136 168.992 41.992 168.32 41.016C167.664 40.024 167.144 39.248 166.76 38.688C166.376 38.128 166.184 37.848 166.184 37.848H165.968L165.944 45.408C165.944 45.808 166 46.088 166.112 46.248C166.24 46.408 166.456 46.488 166.76 46.488C166.856 46.488 166.984 46.488 167.144 46.488C167.32 46.472 167.472 46.464 167.6 46.464C167.744 46.448 167.816 46.44 167.816 46.44L167.936 46.584L167.696 48.096C167.696 48.096 167.584 48.088 167.36 48.072C167.136 48.072 166.856 48.064 166.52 48.048C166.2 48.032 165.864 48.016 165.512 48C165.176 48 164.88 48 164.624 48C164.208 48 163.776 48.016 163.328 48.048C162.88 48.08 162.504 48.112 162.2 48.144C161.896 48.176 161.744 48.192 161.744 48.192L161.912 46.608C162.392 46.544 162.744 46.4 162.968 46.176C163.208 45.952 163.336 45.592 163.352 45.096L163.64 35.568C163.64 35.04 163.504 34.68 163.232 34.488C162.976 34.28 162.464 34.136 161.696 34.056L161.528 33.84L161.696 32.472C161.696 32.472 161.84 32.48 162.128 32.496C162.416 32.512 162.776 32.536 163.208 32.568C163.64 32.584 164.048 32.592 164.432 32.592C164.768 32.592 165.112 32.584 165.464 32.568C165.816 32.552 166.104 32.536 166.328 32.52C166.568 32.504 166.688 32.496 166.688 32.496C167.328 33.536 167.96 34.544 168.584 35.52C169.208 36.496 169.792 37.408 170.336 38.256C170.896 39.088 171.392 39.824 171.824 40.464C172.256 41.088 172.592 41.584 172.832 41.952C173.072 42.304 173.192 42.48 173.192 42.48H173.432L173.384 35.16C173.368 34.792 173.296 34.528 173.168 34.368C173.056 34.208 172.864 34.128 172.592 34.128C172.432 34.128 172.264 34.136 172.088 34.152C171.928 34.152 171.816 34.152 171.752 34.152L171.68 33.984L171.848 32.496C171.848 32.496 171.952 32.504 172.16 32.52C172.384 32.52 172.656 32.528 172.976 32.544C173.296 32.56 173.624 32.576 173.96 32.592C174.312 32.592 174.624 32.592 174.896 32.592C175.28 32.592 175.688 32.584 176.12 32.568C176.568 32.552 176.944 32.536 177.248 32.52C177.552 32.488 177.704 32.472 177.704 32.472L177.584 34.056C177.056 34.12 176.672 34.272 176.432 34.512C176.192 34.736 176.064 35.088 176.048 35.568L175.736 48.336L173.312 48.648ZM185.973 48.288C184.485 48.288 183.205 47.984 182.133 47.376C181.077 46.768 180.261 45.896 179.685 44.76C179.109 43.624 178.821 42.28 178.821 40.728C178.821 38.984 179.157 37.488 179.829 36.24C180.517 34.976 181.501 34.008 182.781 33.336C184.061 32.648 185.581 32.304 187.341 32.304C187.869 32.304 188.413 32.336 188.973 32.4C189.533 32.464 190.045 32.536 190.509 32.616C190.989 32.696 191.373 32.768 191.661 32.832C191.949 32.88 192.093 32.904 192.093 32.904L192.261 33.216C192.261 33.216 192.221 33.408 192.141 33.792C192.061 34.176 191.965 34.704 191.853 35.376C191.757 36.032 191.685 36.768 191.637 37.584L189.333 37.752C189.333 37.752 189.341 37.624 189.357 37.368C189.389 37.096 189.405 36.784 189.405 36.432C189.405 35.76 189.205 35.288 188.805 35.016C188.405 34.728 187.725 34.584 186.765 34.584C185.805 34.584 185.005 34.776 184.365 35.16C183.725 35.544 183.237 36.136 182.901 36.936C182.581 37.72 182.421 38.712 182.421 39.912C182.421 41.224 182.589 42.344 182.925 43.272C183.261 44.2 183.733 44.904 184.341 45.384C184.949 45.864 185.685 46.104 186.549 46.104C187.029 46.104 187.445 46.048 187.797 45.936C188.165 45.824 188.445 45.72 188.637 45.624C188.829 45.512 188.925 45.456 188.925 45.456V43.176C188.925 42.696 188.853 42.384 188.709 42.24C188.581 42.096 188.293 42.024 187.845 42.024C187.701 42.024 187.525 42.024 187.317 42.024C187.125 42.024 186.957 42.024 186.813 42.024C186.669 42.024 186.597 42.024 186.597 42.024L186.477 41.832L186.717 40.128C186.909 40.128 187.181 40.136 187.533 40.152C187.885 40.152 188.277 40.16 188.709 40.176C189.157 40.192 189.605 40.2 190.053 40.2C190.453 40.2 190.837 40.192 191.205 40.176C191.573 40.144 191.869 40.12 192.093 40.104C192.333 40.088 192.453 40.08 192.453 40.08L192.621 40.992C192.349 41.168 192.141 41.392 191.997 41.664C191.869 41.92 191.781 42.304 191.733 42.816C191.685 43.312 191.661 44.016 191.661 44.928C191.661 45.376 191.669 45.784 191.685 46.152C191.717 46.504 191.765 46.792 191.829 47.016L191.613 47.304C191.613 47.304 191.381 47.392 190.917 47.568C190.453 47.728 189.797 47.888 188.949 48.048C188.101 48.208 187.109 48.288 185.973 48.288ZM194.86 48.24L195.052 46.632C195.66 46.536 196.076 46.344 196.3 46.056C196.524 45.768 196.636 45.272 196.636 44.568L196.66 35.376C196.66 34.88 196.604 34.552 196.492 34.392C196.38 34.216 196.148 34.128 195.796 34.128C195.652 34.128 195.492 34.136 195.316 34.152C195.14 34.152 195.052 34.152 195.052 34.152L194.932 33.96L195.124 32.568C195.316 32.568 195.596 32.576 195.964 32.592C196.332 32.592 196.724 32.592 197.14 32.592C197.572 32.592 197.972 32.592 198.34 32.592C198.612 32.592 198.948 32.584 199.348 32.568C199.764 32.552 200.172 32.536 200.572 32.52C200.972 32.504 201.308 32.488 201.58 32.472C201.852 32.44 201.988 32.424 201.988 32.424L201.82 34.08C201.276 34.144 200.876 34.24 200.62 34.368C200.38 34.48 200.22 34.656 200.14 34.896C200.076 35.12 200.028 35.448 199.996 35.88C199.932 36.744 199.876 37.68 199.828 38.688C199.796 39.68 199.772 40.688 199.756 41.712C199.74 42.736 199.732 43.728 199.732 44.688C199.732 45.088 199.764 45.4 199.828 45.624C199.908 45.832 200.06 45.976 200.284 46.056C200.508 46.12 200.828 46.152 201.244 46.152C201.82 46.152 202.292 46.112 202.66 46.032C203.028 45.936 203.316 45.76 203.524 45.504C203.748 45.232 203.924 44.864 204.052 44.4C204.18 43.92 204.292 43.296 204.388 42.528L206.332 42.312L206.5 42.552C206.5 42.552 206.46 42.808 206.38 43.32C206.316 43.832 206.236 44.496 206.14 45.312C206.044 46.128 205.956 47.008 205.876 47.952L205.636 48.192C205.636 48.192 205.42 48.184 204.988 48.168C204.556 48.152 203.996 48.128 203.308 48.096C202.636 48.08 201.908 48.056 201.124 48.024C200.356 48.008 199.62 48 198.916 48C198.228 48 197.572 48.016 196.948 48.048C196.324 48.096 195.82 48.136 195.436 48.168C195.052 48.216 194.86 48.24 194.86 48.24ZM207.209 48.216L207.353 46.68C208.073 46.536 208.545 46.336 208.769 46.08C209.009 45.808 209.129 45.336 209.129 44.664V35.376C209.129 34.88 209.073 34.552 208.961 34.392C208.849 34.216 208.617 34.128 208.265 34.128C208.169 34.128 208.033 34.136 207.857 34.152C207.697 34.152 207.553 34.152 207.425 34.152L207.305 33.96L207.497 32.568C208.009 32.568 208.561 32.576 209.153 32.592C209.761 32.592 210.313 32.592 210.809 32.592C211.113 32.592 211.561 32.576 212.153 32.544C212.761 32.512 213.433 32.472 214.169 32.424L214.049 34.008C213.441 34.088 213.033 34.216 212.825 34.392C212.633 34.552 212.521 34.856 212.489 35.304C212.441 36.072 212.401 36.888 212.369 37.752C212.337 38.6 212.305 39.456 212.273 40.32C212.241 41.184 212.217 42.008 212.201 42.792C212.185 43.56 212.177 44.24 212.177 44.832C212.177 45.488 212.241 45.928 212.369 46.152C212.497 46.376 212.745 46.488 213.113 46.488C213.289 46.488 213.473 46.48 213.665 46.464C213.857 46.448 214.025 46.432 214.169 46.416L214.265 46.56L214.049 48.072C213.697 48.056 213.297 48.04 212.849 48.024C212.401 48.024 211.961 48.016 211.529 48C211.113 48 210.777 48 210.521 48C210.153 48 209.657 48.016 209.033 48.048C208.425 48.096 207.817 48.152 207.209 48.216ZM220.343 48.288C219.511 48.288 218.775 48.208 218.135 48.048C217.511 47.904 217.023 47.76 216.671 47.616C216.319 47.456 216.143 47.376 216.143 47.376L215.951 47.04C215.951 47.04 215.967 46.928 215.999 46.704C216.047 46.464 216.087 46.152 216.119 45.768C216.167 45.368 216.215 44.928 216.263 44.448C216.311 43.952 216.335 43.456 216.335 42.96L218.303 42.816C218.303 43.696 218.383 44.384 218.543 44.88C218.703 45.376 218.975 45.72 219.359 45.912C219.759 46.104 220.295 46.2 220.967 46.2C221.735 46.2 222.351 46.032 222.815 45.696C223.279 45.36 223.511 44.896 223.511 44.304C223.511 43.856 223.335 43.472 222.983 43.152C222.647 42.832 222.207 42.536 221.663 42.264C221.135 41.976 220.567 41.688 219.959 41.4C219.335 41.096 218.727 40.752 218.135 40.368C217.559 39.984 217.079 39.528 216.695 39C216.327 38.472 216.143 37.832 216.143 37.08C216.143 36.152 216.415 35.328 216.959 34.608C217.519 33.888 218.271 33.328 219.215 32.928C220.175 32.512 221.279 32.304 222.527 32.304C223.311 32.304 224.007 32.36 224.615 32.472C225.239 32.568 225.727 32.672 226.079 32.784C226.431 32.896 226.607 32.952 226.607 32.952L226.775 33.264C226.775 33.264 226.735 33.456 226.655 33.84C226.575 34.208 226.487 34.712 226.391 35.352C226.311 35.976 226.247 36.648 226.199 37.368L224.423 37.512L224.207 37.368C224.207 37.368 224.215 37.28 224.231 37.104C224.247 36.928 224.255 36.728 224.255 36.504C224.255 35.784 224.071 35.272 223.703 34.968C223.351 34.664 222.751 34.512 221.903 34.512C221.215 34.512 220.647 34.68 220.199 35.016C219.767 35.352 219.551 35.768 219.551 36.264C219.551 36.68 219.695 37.048 219.983 37.368C220.287 37.672 220.679 37.952 221.159 38.208C221.639 38.464 222.151 38.728 222.695 39C223.383 39.32 224.055 39.672 224.711 40.056C225.367 40.44 225.911 40.904 226.343 41.448C226.775 41.976 226.991 42.648 226.991 43.464C226.991 44.424 226.711 45.272 226.151 46.008C225.607 46.728 224.839 47.288 223.847 47.688C222.855 48.088 221.687 48.288 220.343 48.288ZM228.936 48.216L229.104 46.68C229.792 46.552 230.248 46.352 230.472 46.08C230.712 45.808 230.832 45.336 230.832 44.664V35.376C230.832 34.88 230.776 34.552 230.664 34.392C230.552 34.216 230.32 34.128 229.968 34.128C229.872 34.128 229.752 34.136 229.608 34.152C229.464 34.152 229.344 34.152 229.248 34.152L229.128 33.96L229.296 32.568C229.696 32.568 230.184 32.576 230.76 32.592C231.336 32.592 231.8 32.592 232.152 32.592C232.488 32.592 232.976 32.576 233.616 32.544C234.256 32.512 234.96 32.472 235.728 32.424L235.584 34.008C235.184 34.072 234.88 34.152 234.672 34.248C234.48 34.344 234.352 34.512 234.288 34.752C234.224 34.976 234.176 35.304 234.144 35.736L234 39.192L237.144 39.24C237.64 39.24 238.096 39.232 238.512 39.216C238.928 39.184 239.424 39.136 240 39.072V35.376C240 34.88 239.944 34.552 239.832 34.392C239.72 34.216 239.488 34.128 239.136 34.128C239.04 34.128 238.92 34.136 238.776 34.152C238.632 34.152 238.504 34.152 238.392 34.152L238.272 33.96L238.464 32.568C238.624 32.568 238.888 32.576 239.256 32.592C239.64 32.592 240.04 32.592 240.456 32.592C240.872 32.592 241.216 32.592 241.488 32.592C241.808 32.592 242.272 32.576 242.88 32.544C243.504 32.512 244.2 32.472 244.968 32.424L244.848 33.984C244.256 34.064 243.864 34.192 243.672 34.368C243.496 34.544 243.392 34.856 243.36 35.304C243.312 36.024 243.272 36.808 243.24 37.656C243.208 38.488 243.176 39.336 243.144 40.2C243.112 41.048 243.088 41.864 243.072 42.648C243.072 43.432 243.072 44.128 243.072 44.736C243.072 45.408 243.136 45.864 243.264 46.104C243.408 46.344 243.672 46.464 244.056 46.464C244.216 46.464 244.384 46.456 244.56 46.44C244.736 46.424 244.872 46.408 244.968 46.392L245.064 46.56L244.848 48.072C244.4 48.056 243.832 48.04 243.144 48.024C242.472 48.008 241.888 48 241.392 48C241.168 48 240.856 48 240.456 48C240.056 48.016 239.64 48.024 239.208 48.024C238.792 48.024 238.416 48.032 238.08 48.048L238.272 46.512C238.736 46.496 239.088 46.424 239.328 46.296C239.568 46.168 239.736 45.944 239.832 45.624C239.944 45.304 240 44.856 240 44.28V41.184C239.744 41.184 239.448 41.184 239.112 41.184C238.792 41.168 238.472 41.16 238.152 41.16C237.832 41.16 237.568 41.16 237.36 41.16C237.216 41.16 236.96 41.168 236.592 41.184C236.24 41.2 235.824 41.232 235.344 41.28C234.88 41.312 234.416 41.352 233.952 41.4L233.88 44.832C233.88 45.488 233.944 45.928 234.072 46.152C234.2 46.376 234.448 46.488 234.816 46.488C234.96 46.488 235.112 46.48 235.272 46.464C235.448 46.448 235.592 46.432 235.704 46.416L235.824 46.56L235.608 48.072C235.416 48.056 235.136 48.04 234.768 48.024C234.4 48.024 234.024 48.016 233.64 48C233.272 48 232.968 48 232.728 48C232.344 48 231.904 48.008 231.408 48.024C230.912 48.056 230.44 48.08 229.992 48.096C229.544 48.128 229.192 48.168 228.936 48.216Z" fill="white"/>
<path d="M60.537 30.2381C60.537 18.2611 50.2502 8.50396 37.5 8.50396C24.7498 8.50396 14.463 18.2611 14.463 30.2381C14.463 36.2709 17.0636 45.3768 21.2938 52.9788C23.406 56.7746 25.9091 60.1671 28.6693 62.6046C31.4305 65.0429 34.4134 66.496 37.5 66.496C40.5866 66.496 43.5696 65.0429 46.3307 62.6046C49.0909 60.1671 51.594 56.7746 53.7063 52.9788C57.9364 45.3768 60.537 36.2709 60.537 30.2381Z" stroke="#70D158"/>
<path d="M48.6547 16.0755C40.1857 7.60646 26.0124 7.98098 16.9967 16.9967C7.98095 26.0125 7.60642 40.1857 16.0754 48.6547C20.3413 52.9205 28.619 57.5204 36.9856 59.9047C41.1632 61.0952 45.3321 61.7241 49.0074 61.4959C52.6839 61.2676 55.8207 60.1858 58.0032 58.0033C60.1858 55.8207 61.2676 52.684 61.4959 49.0074C61.724 45.3321 61.0952 41.1633 59.9047 36.9856C57.5204 28.619 52.9205 20.3413 48.6547 16.0755Z" stroke="#70D158"/>
<path d="M30.2381 14.463C18.2611 14.463 8.50399 24.7498 8.50399 37.5C8.50399 50.2502 18.2611 60.537 30.2381 60.537C36.2709 60.537 45.3768 57.9364 52.9788 53.7062C56.7747 51.594 60.1671 49.0909 62.6046 46.3307C65.0429 43.5695 66.496 40.5866 66.496 37.5C66.496 34.4134 65.0429 31.4304 62.6046 28.6693C60.1671 25.9091 56.7747 23.406 52.9788 21.2937C45.3768 17.0636 36.2709 14.463 30.2381 14.463Z" stroke="#70D158"/>
<path d="M16.0755 26.3453C7.60646 34.8143 7.98098 48.9875 16.9967 58.0032C26.0125 67.019 40.1857 67.3935 48.6547 58.9245C52.9205 54.6587 57.5204 46.3809 59.9047 38.0144C61.0952 33.8367 61.7241 29.6679 61.4959 25.9926C61.2676 22.316 60.1858 19.1793 58.0033 16.9967C55.8207 14.8141 52.684 13.7323 49.0074 13.5041C45.3321 13.2759 41.1633 13.9047 36.9856 15.0953C28.619 17.4795 20.3413 22.0794 16.0755 26.3453Z" stroke="#70D158"/>
<path d="M14.463 44.7619C14.463 56.7389 24.7498 66.496 37.5 66.496C50.2502 66.496 60.537 56.7389 60.537 44.7619C60.537 38.7291 57.9364 29.6232 53.7062 22.0212C51.594 18.2254 49.0909 14.8329 46.3307 12.3954C43.5695 9.95709 40.5866 8.50403 37.5 8.50403C34.4134 8.50403 31.4304 9.95709 28.6693 12.3954C25.9091 14.8329 23.406 18.2254 21.2937 22.0212C17.0636 29.6232 14.463 38.7291 14.463 44.7619Z" stroke="#70D158"/>
<path d="M26.3453 58.9245C34.8143 67.3935 48.9876 67.019 58.0033 58.0033C67.019 48.9875 67.3936 34.8143 58.9246 26.3453C54.6587 22.0795 46.381 17.4796 38.0144 15.0953C33.8368 13.9048 29.6679 13.2759 25.9926 13.5041C22.3161 13.7324 19.1793 14.8142 16.9968 16.9967C14.8142 19.1793 13.7324 22.316 13.5041 25.9926C13.276 29.6679 13.9048 33.8367 15.0953 38.0144C17.4796 46.381 22.0795 54.6587 26.3453 58.9245Z" stroke="#70D158"/>
<path d="M44.7619 60.537C56.7389 60.537 66.496 50.2502 66.496 37.5C66.496 24.7498 56.7389 14.463 44.7619 14.463C38.7291 14.463 29.6232 17.0636 22.0212 21.2938C18.2254 23.406 14.8329 25.9091 12.3954 28.6693C9.95709 31.4305 8.50403 34.4134 8.50403 37.5C8.50403 40.5866 9.95709 43.5696 12.3954 46.3307C14.8329 49.0909 18.2254 51.594 22.0213 53.7063C29.6232 57.9364 38.7291 60.537 44.7619 60.537Z" stroke="#70D158"/>
<path d="M58.9245 48.6547C67.3935 40.1857 67.019 26.0125 58.0033 16.9968C48.9875 7.98101 34.8143 7.60649 26.3453 16.0755C22.0795 20.3413 17.4796 28.6191 15.0953 36.9856C13.9048 41.1633 13.2759 45.3321 13.5041 49.0074C13.7324 52.684 14.8142 55.8207 16.9967 58.0033C19.1793 60.1859 22.316 61.2677 25.9926 61.4959C29.6679 61.7241 33.8367 61.0953 38.0144 59.9047C46.381 57.5205 54.6587 52.9206 58.9245 48.6547Z" stroke="#70D158"/>
<path d="M60.537 30.2381C60.537 18.2611 50.2502 8.50396 37.5 8.50396C24.7498 8.50396 14.463 18.2611 14.463 30.2381C14.463 36.2709 17.0636 45.3768 21.2938 52.9788C23.406 56.7746 25.9091 60.1671 28.6693 62.6046C31.4305 65.0429 34.4134 66.496 37.5 66.496C40.5866 66.496 43.5696 65.0429 46.3307 62.6046C49.0909 60.1671 51.594 56.7746 53.7063 52.9788C57.9364 45.3768 60.537 36.2709 60.537 30.2381Z" stroke="#70D158"/>
</svg>
